<?xml version="1.0" encoding="UTF-8" standalone="no"?>
<svg
   xml:space="preserve"
   version="1.1"
   x="0px"
   y="0px"
   viewBox="0 0 100 125"
   id="svg23"
   sodipodi:docname="noun-rotary-switch-4259645.svg"
   inkscape:version="1.3.2 (091e20e, 2023-11-25, custom)"
   xmlns:inkscape="http://www.inkscape.org/namespaces/inkscape"
   xmlns:sodipodi="http://sodipodi.sourceforge.net/DTD/sodipodi-0.dtd"
   xmlns="http://www.w3.org/2000/svg"
   xmlns:svg="http://www.w3.org/2000/svg"><defs
     id="defs23" /><sodipodi:namedview
     id="namedview23"
     pagecolor="#ffffff"
     bordercolor="#000000"
     borderopacity="0.25"
     inkscape:showpageshadow="2"
     inkscape:pageopacity="0.0"
     inkscape:pagecheckerboard="0"
     inkscape:deskcolor="#d1d1d1"
     inkscape:zoom="6.504"
     inkscape:cx="50.046125"
     inkscape:cy="62.5"
     inkscape:window-width="1920"
     inkscape:window-height="1009"
     inkscape:window-x="-8"
     inkscape:window-y="-8"
     inkscape:window-maximized="1"
     inkscape:current-layer="svg23" /><path
     d="M47.5,10L52.5,10L52.5,15L47.5,15L47.5,10Z"
     id="path1" /><path
     d="M26.489,17.639L26.489,17.639"
     id="path2" /><path
     d="M27.405,23.154L31.45,20.215L28.511,16.17L26.489,17.639L24.466,19.109Z"
     id="path3" /><path
     d="M73.511,82.361L73.511,82.361"
     id="path4" /><path
     d="M72.595,76.846L68.55,79.785L71.489,83.83L73.511,82.361L75.534,80.891Z"
     id="path5" /><path
     d="M11.958,37.639L11.958,37.639"
     id="path6" /><path
     d="M16.713,39.184L16.713,39.184"
     id="path7" /><path
     d="M11.958,37.639L11.186,40.018L15.94,41.563L16.713,39.184L17.485,36.807L12.73,35.262Z"
     id="path8" /><path
     d="M83.287,60.816L83.287,60.816"
     id="path9" /><path
     d="M88.042,62.361L88.042,62.361"
     id="path10" /><path
     d="M84.06,58.438L83.287,60.816L82.515,63.193L87.27,64.738L88.042,62.361L88.814,59.982Z"
     id="path11" /><path
     d="M11.958,62.361L11.958,62.361"
     id="path12" /><path
     d="M16.713,60.816L16.713,60.816"
     id="path13" /><path
     d="M15.94,58.438L11.186,59.982L11.958,62.361L12.73,64.738L17.485,63.193L16.713,60.816Z"
     id="path14" /><path
     d="M83.287,39.184L83.287,39.184"
     id="path15" /><path
     d="M88.042,37.639L88.042,37.639"
     id="path16" /><path
     d="M84.06,41.563L88.814,40.018L88.042,37.639L87.27,35.262L82.515,36.807L83.287,39.184Z"
     id="path17" /><path
     d="M26.489,82.361L26.489,82.361"
     id="path18" /><path
     d="M24.466,80.891L26.489,82.361L28.511,83.83L31.45,79.785L27.405,76.846Z"
     id="path19" /><path
     d="M73.511,17.639L73.511,17.639"
     id="path20" /><path
     d="M75.534,19.109L73.511,17.639L71.489,16.17L68.55,20.215L72.595,23.154Z"
     id="path21" /><path
     d="M50,20C33.431,20,20,33.431,20,50S33.431,80,50,80S80,66.569,80,50S66.569,20,50,20ZM37.328,71.695L33.283,68.756L39.161,60.666L43.206,63.605L37.328,71.695Z"
     id="path22" /></svg>
