<?xml version="1.0" encoding="UTF-8" standalone="no"?>
<svg
   version="1.1"
   viewBox="-5.0 -10.0 110.0 135.0"
   id="svg2"
   sodipodi:docname="noun-network-6994248.svg"
   inkscape:version="1.3.2 (091e20e, 2023-11-25, custom)"
   xmlns:inkscape="http://www.inkscape.org/namespaces/inkscape"
   xmlns:sodipodi="http://sodipodi.sourceforge.net/DTD/sodipodi-0.dtd"
   xmlns="http://www.w3.org/2000/svg"
   xmlns:svg="http://www.w3.org/2000/svg">
  <defs
     id="defs2" />
  <sodipodi:namedview
     id="namedview2"
     pagecolor="#ffffff"
     bordercolor="#000000"
     borderopacity="0.25"
     inkscape:showpageshadow="2"
     inkscape:pageopacity="0.0"
     inkscape:pagecheckerboard="0"
     inkscape:deskcolor="#d1d1d1"
     inkscape:zoom="6.0222222"
     inkscape:cx="55.046125"
     inkscape:cy="67.5"
     inkscape:window-width="1920"
     inkscape:window-height="1009"
     inkscape:window-x="-8"
     inkscape:window-y="-8"
     inkscape:window-maximized="1"
     inkscape:current-layer="svg2" />
  <path
     d="m86.762 75.941v-1.7227c-0.011719-2.5586-2.082-4.6289-4.6406-4.6406h-12.77c-2.5586 0.011719-4.6289 2.082-4.6406 4.6406v1.7227c2.918 2.9102 6.875 4.5469 11 4.5469 4.1211 0 8.0781-1.6367 11-4.5469zm-25.23-4.6328c-2.1523-4.8125-1.7227-10.391 1.1484-14.812 2.8672-4.4258 7.7812-7.0977 13.055-7.0977s10.188 2.6719 13.059 7.0977c2.8672 4.4219 3.3008 10 1.1484 14.812-1.2227-3.2617-4.3398-5.4258-7.8203-5.4297h-12.77c-3.4844 0.003906-6.6016 2.168-7.8203 5.4297zm16.391-15.57c-0.88281-0.88672-2.2148-1.1523-3.3711-0.67578-1.1562 0.48047-1.9102 1.6055-1.9102 2.8594 0 1.25 0.75391 2.375 1.9102 2.8555 1.1562 0.47656 2.4883 0.21094 3.3711-0.67578 1.1992-1.207 1.1992-3.1562 0-4.3633zm-2.1914-4.6211v0.003906c-2.75 0-5.2305 1.6562-6.2812 4.1953-1.0547 2.543-0.47266 5.4688 1.4727 7.4102 1.9453 1.9453 4.8711 2.5273 7.4102 1.4766 2.543-1.0547 4.1992-3.5312 4.1992-6.2812 0-3.7578-3.0469-6.8008-6.8008-6.8008zm-29.129 16.805c3.5664 0.16406 7.0938 0.80859 10.488 1.918-1.3477-5.1641-0.49609-10.656 2.3516-15.168h-12.84zm0 20.781c6-1.0703 10.551-7 13.219-12.891-0.28906-0.42188-0.55859-0.85156-0.82031-1.3008-3.9258-1.6992-8.125-2.6758-12.398-2.8828zm-17.273-13.703c2.8203 6.5312 7.5 12.59 13.57 13.672v-17.043c-4.6992 0.22656-9.3086 1.3711-13.57 3.3711zm-4.1992-20.359c0.11719 5.7539 1.082 11.461 2.8711 16.93 4.6797-2.1758 9.7422-3.4141 14.898-3.6484v-13.25zm-0.44141 18.641h0.003906c-2.043-6.0078-3.1445-12.297-3.2695-18.641h-12.672c0.43359 8.6055 3.9414 16.766 9.8906 23 1.875-1.6367 3.9023-3.0938 6.0508-4.3516zm7.7617 13.398c-4.0625-1.4805-7.8242-3.6797-11.109-6.4883 1.4844-1.2656 3.0664-2.4141 4.7305-3.4297 1.543 3.6445 3.6992 7 6.3789 9.918zm30-7.8086c1.1523 1.1016 2.4414 2.0547 3.832 2.8398-2.8164 2.1094-5.9258 3.7969-9.2305 5 2.1719-2.3281 3.9883-4.957 5.3984-7.8125zm1.8789-29.461c-0.23438-5.2305-1.1875-10.406-2.8281-15.379-4.6797 2.1875-9.7422 3.4375-14.898 3.6797v13.289h15.887c0.58203-0.54297 1.1914-1.0508 1.832-1.5195zm0.48047-17.109c1.6641 4.8477 2.7031 9.8867 3.0898 15 3.8633-1.7227 8.1875-2.125 12.301-1.1523-1.2891-6.8242-4.5312-13.133-9.3398-18.148-1.8789 1.6367-3.9102 3.0977-6.0586 4.3594zm-7.8086-13.379c4.0742 1.4727 7.8477 3.6719 11.141 6.4883-1.4844 1.2734-3.0703 2.418-4.7422 3.4297-1.543-3.6523-3.707-7.0078-6.3984-9.918zm-14.09 21.387c-5.1094 2.9961-11.383 3.2266-16.699 0.62109-0.63281 3.2969-0.99219 6.6445-1.082 10h17.781zm7.3594-22.059c2.1055 5.0391 1.7656 10.766-0.91797 15.52 3.75-0.48047 7.4023-1.5508 10.82-3.168-2.2188-5.1211-5.5586-10-9.8984-12.352zm-16.27-10.82c4.9414 0 9.6562 2.0703 13 5.7109 9.2422 0.51953 18.012 4.2539 24.793 10.551 6.7852 6.293 11.16 14.762 12.367 23.938 5.8516 2.8594 9.8633 8.4805 10.664 14.941 0.80078 6.4648-1.7148 12.895-6.6914 17.094-4.9766 4.2031-11.734 5.6094-17.973 3.7344-10.543 8.8633-24.918 11.637-38 7.3359-13.082-4.3047-23.004-15.07-26.227-28.461-3.2227-13.387 0.71484-27.488 10.406-37.273 0.019531-4.668 1.8906-9.1406 5.2031-12.434 3.3086-3.293 7.7891-5.1406 12.457-5.1367zm9.3789 28v-2.2812c-0.011718-2.0977-1.7109-3.7969-3.8086-3.8086h-11.16c-2.1016 0.011718-3.8008 1.7109-3.8086 3.8086v2.2422c5.3281 4.8164 13.438 4.8164 18.77 0zm-22.109-4.6289c1.0234-3.0781 3.8984-5.1602 7.1406-5.1719h11.148c3.2461 0.007813 6.1211 2.0898 7.1406 5.1719 1.9375-4.3125 1.5586-9.3164-1.0117-13.285-2.5664-3.9727-6.9727-6.3711-11.703-6.3711-4.7266 0-9.1367 2.3984-11.703 6.3711-2.5703 3.9688-2.9492 8.9727-1.0117 13.285zm0.17969 6.6992c-2.1055-2.1406-3.6367-4.7773-4.4492-7.6719-4.9688 5.9805-7.8633 13.41-8.25 21.172h12.672c0.097656-4.0938 0.58203-8.168 1.4492-12.172zm14.199-20.5c-0.67188-0.67188-1.6797-0.875-2.5586-0.51172s-1.4531 1.2227-1.4531 2.1719c0 0.94922 0.57422 1.8086 1.4531 2.1719s1.8867 0.16016 2.5586-0.51172c0.91797-0.91797 0.91797-2.4023 0-3.3203zm-1.6484-4.3789c-2.457-0.027344-4.6836 1.4336-5.6406 3.6992-0.95703 2.2617-0.45312 4.8789 1.2734 6.625 1.7305 1.7422 4.3398 2.2734 6.6133 1.3398 2.2695-0.93359 3.7539-3.1484 3.7539-5.6055 0-3.3242-2.6758-6.0273-6-6.0586z"
     fill-rule="evenodd"
     id="path1" />
</svg>
