<?xml version="1.0" encoding="UTF-8" standalone="no"?>
<svg
   viewBox="0 0 64 80"
   x="0px"
   y="0px"
   version="1.1"
   id="svg6"
   sodipodi:docname="noun-switch-6185032.svg"
   inkscape:version="1.3.2 (091e20e, 2023-11-25, custom)"
   xmlns:inkscape="http://www.inkscape.org/namespaces/inkscape"
   xmlns:sodipodi="http://sodipodi.sourceforge.net/DTD/sodipodi-0.dtd"
   xmlns="http://www.w3.org/2000/svg"
   xmlns:svg="http://www.w3.org/2000/svg">
  <defs
     id="defs6" />
  <sodipodi:namedview
     id="namedview6"
     pagecolor="#ffffff"
     bordercolor="#000000"
     borderopacity="0.25"
     inkscape:showpageshadow="2"
     inkscape:pageopacity="0.0"
     inkscape:pagecheckerboard="0"
     inkscape:deskcolor="#d1d1d1"
     inkscape:zoom="10.1625"
     inkscape:cx="32.02952"
     inkscape:cy="63.616236"
     inkscape:window-width="1920"
     inkscape:window-height="1009"
     inkscape:window-x="-8"
     inkscape:window-y="-8"
     inkscape:window-maximized="1"
     inkscape:current-layer="svg6" />
  <path
     d="m59,39c-.55273,0-1,.44727-1,1v15c0,1.6543-1.3457,3-3,3H9c-1.6543,0-3-1.3457-3-3V9c0-1.6543,1.3457-3,3-3h8.75c1.31531-.01173,1.31046-1.98577-.00004-1.99999.00004,0-8.74996,0-8.74996,0-2.75684,0-5,2.24316-5,5v46c0,2.75684,2.24316,5,5,5h46c2.75684,0,5-2.24316,5-5v-15c0-.55273-.44727-1-1-1Z"
     id="path1" />
  <path
     d="m55,4H21.75c-1.29793.02227-1.32948,1.97331.00006,2-.00006,0,33.24994,0,33.24994,0,1.6543,0,3,1.3457,3,3v27c0,.55273.44727,1,1,1s1-.44727,1-1V9c0-2.75684-2.24316-5-5-5Z"
     id="path2" />
  <path
     d="m48.92969,17.22852h-3.7832c-.46283-2.28174-2.48334-4.00488-4.89941-4.00488-2.41675,0-4.43744,1.72437-4.8996,4.00684H15.07031c-1.29948.01734-1.32673,1.97708.00006,2-.00006,0,20.27857,0,20.27857,0,.46722,2.276,2.48608,3.99316,4.89813,3.99316,2.41272,0,4.43195-1.71826,4.89838-3.99512h3.78424c1.30615-.01918,1.3213-1.97763,0-2Zm-8.68262,3.99512c-3.96335-.1264-3.96261-5.87537.00007-6,3.95524.10347,3.95551,5.89679-.00007,6Z"
     id="path3" />
  <path
     d="m48.92969,31h-20.27783c-1.12995-5.28928-8.66651-5.2906-9.79773-.00087,0-.0001-3.78382-.0001-3.78382-.0001-.55273,0-1,.44727-1,1s.44727,1,1,1h3.78363c.46429,2.27979,2.48425,4.00098,4.89899,4.00098,2.41443,0,4.43427-1.7207,4.89893-4h20.27783c1.29948-.01734,1.32673-1.97708,0-2Zm-25.17676,4c-3.95531-.10347-3.95557-5.89679.00009-6,3.96389.12598,3.96194,5.87498-.00009,6Z"
     id="path4" />
  <path
     d="m48.92969,44.7793h-3.67969c-.03607,0-.06659.01685-.10168.02051-.45581-2.29053-2.47882-4.02344-4.90125-4.02344-2.41541,0-4.43561,1.72217-4.89917,4.00293H15.07031c-1.29832.01703-1.32766,1.97699.00006,2-.00006,0,20.27808,0,20.27808,0,.46576,2.27783,2.48523,3.99707,4.89862,3.99707,2.42047,0,4.44269-1.72998,4.9007-4.0177.03528.00378.06598.02063.10223.02063h3.67969c1.30711-.01946,1.32052-1.97771,0-2Zm-8.68262,3.99707c-3.95588-.10369-3.95508-5.89689.00009-6,3.95579.10369,3.95499,5.89689-.00009,6Z"
     id="path5" />
</svg>
