<?xml version="1.0" encoding="UTF-8" standalone="no"?>
<svg
   version="1.1"
   x="0px"
   y="0px"
   viewBox="0 0 53 66.25"
   style="enable-background:new 0 0 53 53;"
   xml:space="preserve"
   id="svg6"
   sodipodi:docname="noun-tactile-switch-4539750.svg"
   inkscape:version="1.3.2 (091e20e, 2023-11-25, custom)"
   xmlns:inkscape="http://www.inkscape.org/namespaces/inkscape"
   xmlns:sodipodi="http://sodipodi.sourceforge.net/DTD/sodipodi-0.dtd"
   xmlns="http://www.w3.org/2000/svg"
   xmlns:svg="http://www.w3.org/2000/svg"><defs
     id="defs6" /><sodipodi:namedview
     id="namedview6"
     pagecolor="#ffffff"
     bordercolor="#000000"
     borderopacity="0.25"
     inkscape:showpageshadow="2"
     inkscape:pageopacity="0.0"
     inkscape:pagecheckerboard="0"
     inkscape:deskcolor="#d1d1d1"
     inkscape:zoom="12.271698"
     inkscape:cx="26.524446"
     inkscape:cy="33.125"
     inkscape:window-width="1920"
     inkscape:window-height="1009"
     inkscape:window-x="-8"
     inkscape:window-y="-8"
     inkscape:window-maximized="1"
     inkscape:current-layer="svg6" /><g
     id="g5"><path
       d="M12.3962393,37.0179443l-2.019043-1.1640625c-0.2387695-0.1376953-0.5449219-0.0556641-0.6826172,0.1835938   c-0.1381836,0.2392578-0.0556641,0.5449219,0.1835938,0.6835938l2.019043,1.1640625   c0.241394,0.1379395,0.5460215,0.053463,0.6826172-0.1835938C12.7180166,37.4622803,12.6354971,37.1566162,12.3962393,37.0179443z"
       id="path1" /><path
       d="M49.4250488,20.9173584l-12.7197876-7.3433228c-0.2180786-1.4754028-1.2854614-2.8303223-3.0687866-3.8598022   c-3.9326172-2.2714844-10.3110352-2.2695313-14.2182617,0c-1.9683838,1.1434937-3.0541992,2.6907959-3.0665894,4.3583984   c-0.0001831,0.0055542-0.0027466,0.0100708-0.0027466,0.015625l-0.0061646,0.8530884L3.5935051,22.3480225   c-0.5855713,0.3405151-0.9205322,0.8425293-0.9271851,1.3780518c-0.0001221,0.0044556-0.0025024,0.0080566-0.0025024,0.0125732   v0.0037231c0,0.0010376-0.0004883,0.0020752-0.0004883,0.0031128c0,0.104332-0.0278633,8.0356255-0.0292969,7.9345703   c0,0.5488281,0.3325195,1.046875,0.9365234,1.4013672l4.6494141,2.734375   c0.2382813,0.1396484,0.5439453,0.0605469,0.6845703-0.1767578c0.1396484-0.2382813,0.0605469-0.5449219-0.1777344-0.6845703   l-4.6494136-2.734375c-0.2817385-0.1660156-0.4433596-0.3623047-0.4433596-0.5380859l0.0244141-6.5068359l19.7758789,11.4189453   c1.0791016,0.6220703,2.7631836,0.6230469,3.8305664-0.0009766l22.0957031-12.8369141l-0.0166016,6.4794922   c-0.0073242,0.2509766-0.2802734,0.4482422-0.4414063,0.5419922L26.7443848,43.6566162   c-0.7705078,0.4453125-2.0708008,0.4453125-2.840332,0l-9.6967783-5.59375   c-0.2416992-0.1367188-0.5449219-0.0556641-0.6831055,0.1835938s-0.0561523,0.5449219,0.1831055,0.6826172l9.6972666,5.5947266   c1.0772724,0.6197739,2.7616863,0.6201363,3.8408203-0.0009766l22.1616211-12.8808594   c0.5878906-0.3447266,0.9208984-0.8339844,0.9370117-1.390625l0.0200195-7.9228516c0-0.0019531,0-0.0048828,0-0.0078125   c0-0.0003662-0.0002441-0.0007324-0.0002441-0.0010986c0-0.0049438,0.0022583-0.0095825,0.0021973-0.0145264   C50.3625488,21.7572021,50.0280762,21.2640381,49.4250488,20.9173584z M35.7155762,17.37146   c-0.003418,1.3046875-0.9169922,2.5527344-2.5712891,3.5136719c-3.6318359,2.1113281-9.5610352,2.109375-13.2163086,0   c-1.6669922-0.9638672-2.5830078-2.2216797-2.5791016-3.5419922c0.0001831-0.0605888,0.0092754,0.2240505-0.019043-0.59375   c0.4414501,0.5592804,1.2329006,1.255867,2.1342773,1.7753906c3.9646893,2.2900105,10.3402843,2.2542,14.21875,0   c0.6948662-0.4044533,1.400013-0.9482594,1.928772-1.560791c0.0388184-0.0449219,0.0836182-0.0880127,0.1205444-0.1335449   C35.7289124,16.9327183,35.7158508,17.2691345,35.7155762,17.37146z M17.2810059,23.4454956   c0.520752,0.6681519,1.2354126,1.2818604,2.1469727,1.8078003c3.9403763,2.2765312,10.3181324,2.2651253,14.21875,0   c0.8485718-0.4932861,1.5281372-1.0840454,2.0368652-1.7302246l-0.0041504,0.5749512   c-0.0039063,1.3046875-0.9174805,2.5537109-2.5712891,3.5146484c-3.6328125,2.1113281-9.5615234,2.109375-13.2167969,0   c-1.6899414-0.9755859-2.6186523-2.2421875-2.6147461-3.5634766L17.2810059,23.4454956z M35.7032471,20.8203125   c-0.0046387,1.3256226-0.937561,2.6257324-2.55896,3.567749c-3.6318359,2.1113281-9.5610352,2.109375-13.2163086,0   c-1.6904297-0.9765625-2.6191406-2.2421875-2.6152344-3.5654297c0.0027657-0.98456-0.0055332-0.7647343-0.0062866-0.8649292   c0.5147095,0.6640625,1.2208862,1.272644,2.121521,1.7926636c3.9403763,2.2765312,10.3181324,2.2651253,14.21875,0   c0.8676758-0.5043335,1.5532837-1.0906372,2.0623169-1.7279663L35.7032471,20.8203125z M19.920166,10.5794678   c3.6412125-2.1167793,9.5682907-2.1046257,13.2163086,0c1.6074829,0.9281616,2.5167236,2.1210327,2.5991821,3.3746338   c0.1052361,1.5860357-1.1396828,2.8647976-2.50354,3.6721191c-0.0175171,0.010376-0.0324707,0.0217285-0.0501709,0.0320435   c-3.6061058,2.0984173-9.5699139,2.1083603-13.2163696-0.0016479c-1.3501167-0.7818279-2.6172752-2.0293074-2.6162109-3.5576172   C17.3500977,12.7924805,18.2630005,11.5428467,19.920166,10.5794678z M4.0959468,23.2122803l12.2382813-7.1095581   l-0.0576172,7.9406128c-0.0053711,1.6982422,1.1010742,3.2724609,3.1147461,4.4345703   c3.9255733,2.2679787,10.3029556,2.2736549,14.2192383,0c1.9736328-1.1474609,3.0634766-2.7021484,3.0688477-4.3740234   l0.0239258-3.2809448c0-0.0001221,0-0.0001831,0-0.0003052c0-0.000061,0-0.000061,0-0.0001221l0.0441895-6.0692139   l12.1779785,7.0302734c0.277771,0.1595459,0.4378052,0.3511353,0.4404907,0.5263672   c-0.000061,0.003479-0.0020142,0.0062866-0.0020142,0.0097656v0.0029297   c-0.0014648,0.1629028-0.1655273,0.3626099-0.421875,0.5188599c-0.0036011,0.0021362-0.0061035,0.0046387-0.0097046,0.0067749   l-2.0569458,1.1950684L26.7653809,35.7259521c-0.769825,0.444416-2.1599636,0.3872757-2.8305664,0.0009766L4.1042476,24.2757568   c-0.1740115-0.0996094-0.2951663-0.2125854-0.3671267-0.3266602c-0.043457-0.0699463-0.0733032-0.1404419-0.0733032-0.2084961   c0-0.000061-0.000061-0.0001221-0.000061-0.0001831C3.6649773,23.564209,3.8221428,23.3718262,4.0959468,23.2122803z"
       id="path2" /><path
       d="M42.5974121,23.5394287c0.898735,0.5183125,2.3080597,0.5171604,3.2060547-0.0048828   c0.5146484-0.2998047,0.809082-0.7431641,0.8081055-1.21875c-0.0009766-0.4736328-0.296875-0.9160156-0.8120117-1.2138672   c-0.9042969-0.5214844-2.3144531-0.5205078-3.2119141,0.0009766   C41.5076141,21.7312126,41.5096741,22.9090939,42.5974121,23.5394287z M43.0900879,21.9681396   c0.5842934-0.3408375,1.618103-0.3415489,2.2094727,0c0,0,0,0,0,0.0009766   c0.1923828,0.1103516,0.3120117,0.2441406,0.3120117,0.3486328c0,0.0830078-0.081543,0.21875-0.3110352,0.3515625   c-0.5961914,0.3476563-1.6049805,0.3496094-2.203125,0.0039063C42.6901436,22.4368496,42.670063,22.2096806,43.0900879,21.9681396z   "
       id="path3" /><path
       d="M24.1872559,34.239624c0.8997307,0.518322,2.3090343,0.5171623,3.2060547-0.0048828   c1.0818501-0.6287689,1.0744705-1.8104515-0.003418-2.4316406c0,0,0,0,0-0.0009766   c-0.9047852-0.5195313-2.3154297-0.5205078-3.2124023,0.0009766C23.0944233,32.4325752,23.1037083,33.6137543,24.1872559,34.239624   z M24.6799316,32.668335c0.5853043-0.3419991,1.6185036-0.3406219,2.2099609,0.0009766   c0.4150829,0.2380943,0.4057693,0.4659309,0.0009766,0.7001953c-0.5952148,0.3476563-1.6044922,0.3496094-2.2036133,0.0039063   C24.277813,33.1357841,24.2626724,32.9088974,24.6799316,32.668335z"
       id="path4" /><path
       d="M7.2341304,24.4515381c0.8987813,0.5183392,2.3085465,0.5171604,3.2055659-0.0048828   c1.0760031-0.6247749,1.0815868-1.8058624-0.003418-2.4326172c-0.9033203-0.5195313-2.3144531-0.5205078-3.2119136,0.0009766   C6.1443014,22.6427441,6.1463985,23.8232536,7.2341304,24.4515381z M7.7268062,22.880249   c0.5830798-0.3406982,1.6157546-0.3419304,2.2094722,0.0009766c0.4354553,0.2497787,0.3872652,0.4766407,0.0009766,0.7001953   c-0.5957031,0.3486328-1.6054688,0.3496094-2.2031245,0.0029297C7.3259211,23.3491402,7.3076081,23.1234474,7.7268062,22.880249z"
       id="path5" /></g></svg>
