<?xml version="1.0" encoding="UTF-8" standalone="no"?>
<svg
   version="1.1"
   x="0px"
   y="0px"
   viewBox="0 0 100 125"
   enable-background="new 0 0 100 100"
   xml:space="preserve"
   id="svg2"
   sodipodi:docname="noun-integrated-circuit-870014.svg"
   inkscape:version="1.3.2 (091e20e, 2023-11-25, custom)"
   xmlns:inkscape="http://www.inkscape.org/namespaces/inkscape"
   xmlns:sodipodi="http://sodipodi.sourceforge.net/DTD/sodipodi-0.dtd"
   xmlns="http://www.w3.org/2000/svg"
   xmlns:svg="http://www.w3.org/2000/svg"><defs
     id="defs2" /><sodipodi:namedview
     id="namedview2"
     pagecolor="#ffffff"
     bordercolor="#000000"
     borderopacity="0.25"
     inkscape:showpageshadow="2"
     inkscape:pageopacity="0.0"
     inkscape:pagecheckerboard="0"
     inkscape:deskcolor="#d1d1d1"
     inkscape:zoom="4.5990225"
     inkscape:cx="33.15922"
     inkscape:cy="42.074158"
     inkscape:window-width="1920"
     inkscape:window-height="1009"
     inkscape:window-x="-8"
     inkscape:window-y="-8"
     inkscape:window-maximized="1"
     inkscape:current-layer="svg2" /><path
     d="M95.078,42.045l-1.768-1.768l0.442-0.442c0.117-0.117,0.183-0.276,0.183-0.442c0-0.166-0.065-0.325-0.183-0.442l-2.21-2.21  l2.652-2.652c0.234-0.234,0.366-0.552,0.366-0.884s-0.132-0.649-0.366-0.884L67.678,5.806c-0.488-0.488-1.279-0.488-1.768,0  l-2.652,2.652l-2.21-2.21c-0.244-0.244-0.641-0.244-0.885,0L59.723,6.69l-1.768-1.768c-0.234-0.234-0.65-0.234-0.885,0l-2.651,2.652  c-0.117,0.117-0.183,0.276-0.183,0.442c0,0.166,0.065,0.325,0.183,0.442l1.769,1.768l-0.442,0.442c-0.243,0.244-0.243,0.64,0,0.884  l2.21,2.21l-1.767,1.767l-2.21-2.21c-0.244-0.244-0.641-0.244-0.885,0l-0.441,0.442l-1.767-1.768c-0.244-0.244-0.642-0.244-0.884,0  l-2.652,2.651c-0.118,0.117-0.184,0.276-0.184,0.442c0,0.166,0.065,0.325,0.183,0.442l1.769,1.768l-0.442,0.442  c-0.243,0.244-0.243,0.64,0,0.884l2.21,2.21L49.117,22.6l-2.209-2.209c-0.244-0.244-0.641-0.244-0.885,0l-0.441,0.442l-1.768-1.768  c-0.244-0.244-0.641-0.244-0.885,0l-2.652,2.652c-0.117,0.117-0.183,0.276-0.183,0.442s0.065,0.325,0.184,0.442l1.768,1.768  l-0.442,0.442c-0.243,0.244-0.243,0.64,0,0.884l2.21,2.21l-1.767,1.767l-2.209-2.21c-0.117-0.117-0.276-0.183-0.442-0.183  s-0.325,0.066-0.442,0.183l-0.441,0.442l-1.768-1.768c-0.244-0.244-0.641-0.244-0.885,0l-2.651,2.651  c-0.243,0.244-0.243,0.64,0,0.884l1.768,1.768l-0.442,0.442c-0.117,0.117-0.183,0.276-0.183,0.442c0,0.166,0.065,0.325,0.183,0.442  l2.211,2.21l-1.768,1.768l-2.21-2.21c-0.244-0.244-0.641-0.244-0.885,0l-0.441,0.442l-1.768-1.768c-0.234-0.234-0.65-0.234-0.885,0  l-2.651,2.652c-0.117,0.117-0.183,0.276-0.183,0.442c0,0.166,0.065,0.325,0.183,0.442l1.769,1.768l-0.442,0.442  c-0.243,0.244-0.243,0.64,0,0.884l2.21,2.21l-1.767,1.767l-2.21-2.21c-0.244-0.244-0.641-0.244-0.885,0l-0.441,0.442l-1.769-1.768  c-0.242-0.244-0.64-0.244-0.884,0l-2.651,2.652c-0.117,0.117-0.183,0.276-0.183,0.442c0,0.166,0.065,0.325,0.184,0.442l1.768,1.768  l-0.442,0.442c-0.243,0.244-0.243,0.64,0,0.884l2.21,2.21l-1.767,1.767l-2.209-2.209c-0.244-0.244-0.64-0.244-0.884,0l-0.443,0.442  l-1.767-1.768c-0.244-0.244-0.642-0.244-0.884,0L11.993,50c-0.118,0.117-0.184,0.276-0.184,0.442c0,0.166,0.065,0.325,0.183,0.442  l1.769,1.768l-0.442,0.442c-0.243,0.244-0.243,0.64,0,0.884l2.21,2.21l-1.767,1.767l-2.209-2.21c-0.234-0.234-0.65-0.234-0.885,0  l-0.441,0.442l-1.768-1.768c-0.234-0.234-0.65-0.234-0.885,0l-2.651,2.652c-0.243,0.244-0.243,0.64,0,0.884l1.768,1.768  l-0.442,0.442c-0.117,0.117-0.183,0.276-0.183,0.442c0,0.166,0.065,0.325,0.183,0.442l2.21,2.21L5.806,65.91  c-0.234,0.234-0.366,0.552-0.366,0.884s0.132,0.649,0.366,0.884l26.517,26.516c0.244,0.244,0.563,0.366,0.884,0.366  s0.64-0.122,0.884-0.366l2.652-2.652l2.21,2.21c0.244,0.244,0.641,0.244,0.885,0l0.441-0.442l1.768,1.768  c0.117,0.117,0.276,0.183,0.442,0.183s0.325-0.066,0.442-0.183l2.651-2.652c0.117-0.117,0.183-0.276,0.183-0.442  c0-0.166-0.065-0.325-0.183-0.442l-1.769-1.768l0.442-0.442c0.243-0.244,0.243-0.64,0-0.884l-2.21-2.21l1.767-1.767l2.21,2.21  c0.244,0.244,0.641,0.244,0.885,0l0.441-0.442l1.767,1.768c0.122,0.122,0.282,0.183,0.442,0.183s0.32-0.061,0.441-0.183l2.652-2.651  c0.118-0.117,0.184-0.276,0.184-0.442c0-0.166-0.065-0.325-0.183-0.442l-1.769-1.768l0.442-0.442c0.243-0.244,0.243-0.64,0-0.884  l-2.21-2.21l1.767-1.767l2.209,2.209c0.244,0.244,0.641,0.244,0.885,0l0.441-0.442l1.768,1.768c0.122,0.122,0.282,0.183,0.442,0.183  s0.32-0.061,0.442-0.183l2.652-2.652c0.117-0.117,0.183-0.276,0.183-0.442s-0.065-0.325-0.184-0.442l-1.768-1.768l0.442-0.442  c0.243-0.244,0.243-0.64,0-0.884l-2.21-2.21l1.767-1.767l2.209,2.21c0.117,0.117,0.276,0.183,0.442,0.183s0.325-0.066,0.442-0.183  l0.441-0.442l1.768,1.768c0.122,0.122,0.282,0.183,0.442,0.183s0.32-0.061,0.442-0.183l2.651-2.651c0.243-0.244,0.243-0.64,0-0.884  l-1.768-1.768l0.442-0.442c0.117-0.117,0.183-0.276,0.183-0.442c0-0.166-0.065-0.325-0.183-0.442l-2.211-2.21l1.768-1.768l2.21,2.21  c0.244,0.244,0.641,0.244,0.885,0l0.441-0.442l1.768,1.768c0.117,0.117,0.276,0.183,0.442,0.183s0.325-0.066,0.442-0.183  l2.651-2.652c0.117-0.117,0.183-0.276,0.183-0.442c0-0.166-0.065-0.325-0.183-0.442l-1.769-1.768l0.442-0.442  c0.243-0.244,0.243-0.64,0-0.884l-2.21-2.21l1.767-1.767l2.21,2.21c0.244,0.244,0.641,0.244,0.885,0l0.441-0.442l1.769,1.768  c0.121,0.122,0.281,0.183,0.441,0.183s0.32-0.061,0.442-0.183l2.651-2.652c0.117-0.117,0.183-0.276,0.183-0.442  c0-0.166-0.065-0.325-0.184-0.442l-1.768-1.768l0.442-0.442c0.243-0.244,0.243-0.64,0-0.884l-2.21-2.21l1.767-1.767l2.209,2.209  c0.244,0.244,0.64,0.244,0.884,0l0.443-0.442l1.767,1.768c0.122,0.122,0.282,0.183,0.442,0.183s0.32-0.061,0.441-0.183L88.007,50  c0.118-0.117,0.184-0.276,0.184-0.442c0-0.166-0.065-0.325-0.183-0.442l-1.769-1.768l0.442-0.442c0.243-0.244,0.243-0.64,0-0.884  l-2.21-2.21l1.767-1.767l2.209,2.21c0.234,0.234,0.65,0.234,0.885,0l0.441-0.442l1.768,1.768c0.117,0.117,0.276,0.183,0.442,0.183  s0.325-0.066,0.442-0.183l2.651-2.652C95.321,42.685,95.321,42.289,95.078,42.045z M57.071,11.109l0.442-0.442  c0.117-0.117,0.183-0.276,0.183-0.442c0-0.166-0.065-0.325-0.184-0.442l-1.768-1.768l1.768-1.768l1.768,1.768  c0.244,0.244,0.641,0.244,0.885,0l0.441-0.442l1.768,1.768l-3.535,3.536L57.071,11.109z M50,18.18l0.442-0.442  c0.243-0.244,0.243-0.64,0-0.884l-1.769-1.768l1.769-1.768l1.767,1.768c0.117,0.117,0.276,0.183,0.442,0.183  s0.325-0.066,0.442-0.183l0.441-0.442l1.768,1.768l-0.663,0.663l-2.873,2.873L50,18.18z M42.929,25.251l0.442-0.442  c0.244-0.244,0.243-0.64,0-0.884l-1.769-1.768l1.769-1.768l1.768,1.768c0.244,0.244,0.641,0.244,0.885,0l0.441-0.442l1.768,1.768  l-3.536,3.536L42.929,25.251z M35.857,32.322L36.3,31.88c0.243-0.244,0.243-0.64,0-0.884l-1.768-1.768l1.768-1.768l1.768,1.768  c0.244,0.244,0.641,0.244,0.885,0l0.441-0.442l1.768,1.768l-1.964,1.964l-1.571,1.571L35.857,32.322z M28.787,39.394l0.442-0.442  c0.244-0.244,0.243-0.64-0.001-0.884L27.461,36.3l1.768-1.768l1.768,1.768c0.244,0.244,0.641,0.244,0.885,0l0.441-0.442l1.768,1.768  l-3.535,3.536L28.787,39.394z M21.716,46.464l0.442-0.442c0.117-0.117,0.183-0.276,0.183-0.442c0-0.166-0.065-0.325-0.183-0.442  l-1.769-1.768l1.768-1.768l1.769,1.768c0.242,0.244,0.64,0.244,0.884,0l0.441-0.442l1.768,1.768l-2.431,2.431l-1.105,1.105  L21.716,46.464z M14.645,53.536l0.442-0.442c0.243-0.244,0.243-0.64,0-0.884l-1.769-1.768l1.769-1.768l1.767,1.768  c0.244,0.244,0.64,0.244,0.884,0L18.181,50l1.768,1.768l-3.536,3.536L14.645,53.536z M7.573,60.606l0.442-0.442  c0.243-0.244,0.243-0.64,0-0.884l-1.768-1.768l1.768-1.768l1.768,1.768c0.236,0.234,0.65,0.234,0.885,0l0.441-0.442l1.768,1.768  l-0.393,0.393l-3.143,3.143L7.573,60.606z M8.457,66.794L66.794,8.458l0.884,0.884L9.341,67.678L8.457,66.794z M23.483,81.82  l-5.304-5.303c1.463-1.462,3.843-1.462,5.304,0C24.945,77.979,24.945,80.358,23.483,81.82C23.483,81.82,23.483,81.82,23.483,81.82z   M31.438,89.775l-7.071-7.07c0,0,0,0,0.001-0.001c1.948-1.949,1.948-5.122-0.001-7.071s-5.121-1.949-7.07,0c0,0,0,0,0,0  l-7.071-7.071l58.336-58.337l21.213,21.212L31.438,89.775z M42.929,88.891l-0.442,0.442c-0.117,0.117-0.183,0.276-0.183,0.442  c0,0.166,0.065,0.325,0.184,0.442l1.768,1.768l-1.768,1.768l-1.768-1.768c-0.122-0.122-0.282-0.183-0.442-0.183  s-0.32,0.061-0.442,0.183l-0.441,0.442l-1.768-1.768l3.535-3.536L42.929,88.891z M50,81.82l-0.442,0.442  c-0.243,0.244-0.243,0.64,0,0.884l1.769,1.768l-1.769,1.768l-1.767-1.768c-0.117-0.117-0.276-0.183-0.442-0.183  s-0.325,0.066-0.442,0.183l-0.441,0.442l-1.768-1.768l0.663-0.663l2.873-2.873L50,81.82z M57.071,74.749l-0.442,0.442  c-0.244,0.244-0.243,0.64,0,0.884l1.769,1.768l-1.769,1.768l-1.768-1.768c-0.122-0.122-0.282-0.183-0.442-0.183  s-0.32,0.061-0.442,0.183l-0.441,0.442l-1.768-1.768l3.536-3.536L57.071,74.749z M64.143,67.678L63.7,68.12  c-0.243,0.244-0.243,0.64,0,0.884l1.768,1.768L63.7,72.539l-1.768-1.768c-0.122-0.122-0.282-0.183-0.442-0.183  s-0.32,0.061-0.442,0.183l-0.441,0.442l-1.768-1.768l1.964-1.964l1.571-1.571L64.143,67.678z M71.213,60.606l-0.442,0.442  c-0.244,0.244-0.243,0.64,0.001,0.884l1.768,1.768l-1.768,1.768L69.004,63.7c-0.122-0.122-0.282-0.183-0.442-0.183  s-0.32,0.061-0.442,0.183l-0.441,0.442l-1.768-1.768l3.535-3.536L71.213,60.606z M78.284,53.536l-0.442,0.442  c-0.117,0.117-0.183,0.276-0.183,0.442c0,0.166,0.065,0.325,0.183,0.442l1.769,1.768l-1.768,1.768l-1.769-1.768  c-0.121-0.122-0.281-0.183-0.441-0.183s-0.32,0.061-0.442,0.183l-0.441,0.442l-1.768-1.768l2.431-2.431l1.105-1.105L78.284,53.536z   M85.355,46.464l-0.442,0.442c-0.243,0.244-0.243,0.64,0,0.884l1.769,1.768l-1.769,1.768l-1.767-1.768  c-0.122-0.122-0.282-0.183-0.442-0.183s-0.319,0.061-0.441,0.183L81.819,50l-1.768-1.768l3.536-3.536L85.355,46.464z M33.206,91.542  l-0.884-0.884l58.336-58.337l0.884,0.884L33.206,91.542z M91.984,44.255l-1.768-1.768c-0.118-0.117-0.276-0.183-0.442-0.183  s-0.325,0.066-0.442,0.183l-0.441,0.442l-1.768-1.768l0.393-0.393l3.143-3.143l1.768,1.768l-0.442,0.442  c-0.243,0.244-0.243,0.64,0,0.884l1.768,1.768L91.984,44.255z"
     id="path1" /></svg>
